<!-- <svg xmlns="http://www.w3.org/2000/svg" viewBox="0 0 100 100">
  <defs>
    <linearGradient id="grad" x1="0%" y1="0%" x2="100%" y2="100%">
      <stop offset="0%" style="stop-color:#8b5cf6;stop-opacity:1" />
      <stop offset="100%" style="stop-color:#ec4899;stop-opacity:1" />
    </linearGradient>
  </defs>
  <rect width="100" height="100" rx="20" fill="url(#grad)"/>
  <path d="M30 25 L30 65 M50 25 L50 65 M70 25 L70 65 M20 25 L80 25 M20 65 L80 65 M25 15 L25 25 M45 15 L45 25 M65 15 L65 25" stroke="white" stroke-width="6" stroke-linecap="round" fill="none"/>
</svg> -->

<svg width="86" height="86" viewBox="0 0 110.08 110.08" class="icon" xmlns="http://www.w3.org/2000/svg"><path d="M92.665 83.775c-0.731 0 -1.322 -0.591 -1.322 -1.322V55.266c0 -4.859 -0.957 -9.589 -2.86 -14.05 -1.827 -4.311 -4.45 -8.181 -7.772 -11.513 -3.333 -3.333 -7.202 -5.945 -11.513 -7.772 -4.461 -1.892 -9.181 -2.86 -14.05 -2.86 -4.859 0 -9.589 0.957 -14.05 2.86 -4.311 1.827 -8.181 4.45 -11.513 7.772 -3.333 3.333 -5.945 7.202 -7.772 11.513 -1.892 4.461 -2.86 9.181 -2.86 14.05v27.176c0 0.731 -0.591 1.322 -1.322 1.322s-1.322 -0.591 -1.322 -1.322V55.266c0 -5.224 1.032 -10.298 3.064 -15.082 1.967 -4.622 4.773 -8.772 8.342 -12.352 3.569 -3.569 7.729 -6.375 12.352 -8.342 4.784 -2.032 9.858 -3.064 15.082 -3.064s10.298 1.032 15.082 3.064c4.622 1.967 8.772 4.773 12.352 8.342 3.569 3.569 6.375 7.729 8.342 12.352 2.032 4.784 3.064 9.858 3.064 15.082v27.176c0 0.742 -0.591 1.333 -1.322 1.333" fill="#154b8b"/><path d="M10.739 91.45c-3.805 0 -6.891 -3.085 -6.891 -6.891V66.489c0 -3.805 3.085 -6.891 6.891 -6.891s6.891 3.085 6.891 6.891v18.071c0 3.805 -3.085 6.891 -6.891 6.891" fill="#9ed5e4"/><path d="M10.739 92.772c-4.526 0 -8.213 -3.687 -8.213 -8.213V66.489c0 -4.526 3.687 -8.213 8.213 -8.213s8.213 3.687 8.213 8.213v18.071c0.011 4.526 -3.677 8.213 -8.213 8.213m0 -31.852c-3.064 0 -5.568 2.494 -5.568 5.568v18.071c0 3.064 2.494 5.568 5.568 5.568 3.064 0 5.568 -2.494 5.568 -5.568V66.489c0 -3.064 -2.494 -5.568 -5.568 -5.568" fill="#154b8b"/><path d="M99.556 91.45c-3.805 0 -6.891 -3.085 -6.891 -6.891V66.489c0 -3.805 3.085 -6.891 6.891 -6.891s6.891 3.085 6.891 6.891v18.071c0 3.805 -3.085 6.891 -6.891 6.891" fill="#9ed5e4"/><path d="M99.556 92.772c-4.526 0 -8.213 -3.687 -8.213 -8.213V66.489c0 -4.526 3.687 -8.213 8.213 -8.213s8.213 3.687 8.213 8.213v18.071c0 4.526 -3.687 8.213 -8.213 8.213m0 -31.852c-3.064 0 -5.568 2.494 -5.568 5.568v18.071c0 3.064 2.494 5.568 5.568 5.568 3.064 0 5.568 -2.494 5.568 -5.568V66.489c-0.011 -3.064 -2.505 -5.568 -5.568 -5.568M56.674 82.012c-0.097 0 -0.194 -0.011 -0.29 -0.022 -0.699 -0.118 -1.247 -0.645 -1.397 -1.344l-4.494 -20.64 -7.686 11.535c-0.323 0.484 -0.86 0.774 -1.441 0.774h-9.954c-0.957 0 -1.731 -0.774 -1.731 -1.731s0.774 -1.731 1.731 -1.731h9.03L49.88 54.696c0.387 -0.581 1.075 -0.871 1.763 -0.742s1.226 0.656 1.376 1.333l4.45 20.457 4.257 -6.837c0.312 -0.505 0.871 -0.817 1.473 -0.817h15.695c0.957 0 1.731 0.774 1.731 1.731s-0.774 1.731 -1.731 1.731h-14.727l-5.998 9.643c-0.333 0.516 -0.903 0.817 -1.494 0.817" fill="#154b8b"/></svg>
